<svg width="133" height="33" viewBox="0 0 133 33" fill="none" xmlns="http://www.w3.org/2000/svg">
<path d="M-0.000183105 6.74223C-0.000183105 6.74223 3.30401 20.3071 3.83135 22.5089C4.44685 25.0788 5.55586 26.0247 8.75336 25.3868L10.8166 16.9766C11.3395 14.8876 11.6903 13.3983 12.0264 11.2732H12.0855C12.3217 13.4191 12.658 14.8938 13.0884 16.9839C13.0884 16.9839 13.9282 20.8019 14.3583 22.8073C14.7896 24.8119 15.9897 26.0753 19.1217 25.3875L24.0378 6.74365H20.0686L18.3903 14.8043C17.939 17.1506 17.5295 18.9839 17.2139 21.1304H17.1579C16.8709 19.0053 16.506 17.2446 16.0473 14.9586L14.2997 6.74365H10.1642L8.29487 14.7516C7.76529 17.185 7.26997 19.15 6.95499 21.2237H6.89794C6.57538 19.2708 6.14574 16.8012 5.68051 14.4456C5.68051 14.4456 4.56992 8.71795 4.18027 6.74365L0.000203361 6.74419L-0.000183105 6.74223ZM37.8379 6.74223V25.3861H41.6169V21.4271V6.74133H37.8379V6.74223ZM91.0615 6.74223V20.4961C91.0615 22.3924 91.4178 23.721 92.1798 24.5327C92.8456 25.2425 93.9423 25.7022 95.2564 25.7022C96.3737 25.7022 97.473 25.4899 97.9911 25.2966L97.9424 22.3379C97.5569 22.4329 97.1134 22.509 96.5068 22.509C95.2195 22.509 94.7878 21.683 94.7878 19.9803V14.7181H98.079V11.151H94.7878V6.74228H91.0613L91.0615 6.74223ZM29.3926 11.0643C27.0441 11.0643 25.1798 11.7249 24.1636 12.3133L24.9072 14.8646C25.8373 14.2772 27.3181 13.7909 28.7203 13.7909C31.0417 13.7849 31.4212 15.106 31.4212 15.9532V16.1536C26.3628 16.146 23.1676 17.8997 23.1676 21.4743C23.1676 23.6568 24.7942 25.7021 27.6225 25.7021C29.3635 25.7021 30.8196 25.0065 31.6923 23.8918H31.7779C31.7779 23.8918 32.3558 26.3125 35.5394 25.3868C35.3722 24.3793 35.3179 23.3051 35.3179 22.0114V17.0307C35.3179 13.8563 33.965 11.0643 29.3926 11.0643L29.3926 11.0643ZM51.9982 11.0643C49.6334 11.0643 48.5708 12.2649 47.9264 13.2835H47.8704V11.3804H44.264V25.387H48.0631V17.1727C48.0631 16.7876 48.107 16.3804 48.2412 16.0262C48.556 15.1992 49.324 14.2317 50.5502 14.2317C52.0831 14.2317 52.8004 15.5302 52.8004 17.404V25.3868H56.5955V17.0732C56.5955 16.7056 56.6458 16.2628 56.7537 15.9378C57.0657 14.9971 57.8937 14.2316 59.0335 14.2316C60.5876 14.2316 61.3334 15.5074 61.3334 17.7123V25.3869H65.1311V17.1375C65.1311 12.7869 62.9261 11.0643 60.4371 11.0643C59.3347 11.0643 58.4647 11.3413 57.678 11.8251C57.0168 12.2316 56.4249 12.8091 55.9075 13.5696H55.8515C55.2496 12.0601 53.8373 11.0643 51.9975 11.0643L51.9982 11.0643ZM72.8602 11.0643C70.5122 11.0643 68.6483 11.7249 67.6312 12.3133L68.3759 14.8646C69.305 14.2772 70.7868 13.7909 72.1882 13.7909C74.5081 13.7849 74.8885 15.106 74.8885 15.9532V16.1536C69.8308 16.146 66.6352 17.8997 66.6352 21.4743C66.6352 23.6568 68.2626 25.7021 71.0924 25.7021C72.8321 25.7021 74.2887 25.0065 75.1597 23.8918H75.2456C75.2456 23.8918 75.8234 26.3125 79.0075 25.3868C78.84 24.3793 78.7863 23.3051 78.7863 22.0114V17.0307C78.7863 13.8563 77.4331 11.0643 72.8602 11.0643L72.8602 11.0643ZM88.6369 11.0643C87.1822 11.0643 85.5271 12.0051 84.8323 14.0219H84.7262V11.3803H81.3063V25.3868H85.2049V18.2146C85.2049 17.8276 85.2283 17.4903 85.2895 17.1809C85.5778 15.6785 86.7248 14.7181 88.371 14.7181C88.823 14.7181 89.1464 14.7671 89.4963 14.8178V11.1509C89.2029 11.0915 89.0022 11.0641 88.6371 11.0641L88.6369 11.0643ZM31.5433 18.6356V20.383C31.5433 20.6414 31.5208 20.9081 31.4494 21.1413C31.1569 22.1117 30.1534 22.9318 28.899 22.9318C27.8532 22.9318 27.0225 22.3372 27.0225 21.0792C27.0225 19.155 29.1366 18.6231 31.5434 18.6356H31.5433ZM75.0109 18.6356V20.383C75.0109 20.6414 74.988 20.9081 74.917 21.1413C74.6245 22.1117 73.6214 22.9318 72.367 22.9318C71.321 22.9318 70.4901 22.3372 70.4901 21.0792C70.4901 19.155 72.6042 18.6231 75.011 18.6356H75.0109Z" fill="#40A2D5"/>
<path d="M118.51 0C117.29 0 116.32 0.682568 116.32 1.51352L117.061 9.91884C117.143 10.4252 117.762 10.8159 118.511 10.8159C119.261 10.8149 119.878 10.4246 119.961 9.91884L120.706 1.51352C120.706 0.682639 119.733 7.13722e-05 118.512 7.13722e-05L118.51 0ZM106.436 6.74235C105.803 6.75741 105.083 7.23784 104.625 8.03283C104.013 9.09144 104.122 10.2745 104.838 10.6895L112.473 14.2518C112.95 14.4296 113.598 14.0902 113.973 13.4423C113.973 13.4422 113.973 13.442 113.973 13.4419C114.35 12.7908 114.321 12.0587 113.924 11.7339L107.028 6.88813C106.849 6.78421 106.648 6.73744 106.436 6.74246L106.436 6.74235ZM130.584 6.74235C130.373 6.73733 130.172 6.7841 129.993 6.88802L123.096 11.7338C122.702 12.0586 122.673 12.7907 123.048 13.4418L123.048 13.4422C123.425 14.0901 124.07 14.4295 124.547 14.2517L132.186 10.6896C132.905 10.2745 133.008 9.09157 132.4 8.03291C131.941 7.23789 131.22 6.75749 130.587 6.74243L130.584 6.74235ZM112.758 17.832C112.66 17.8306 112.564 17.8459 112.474 17.8797L104.839 21.4378C104.123 21.8547 104.014 23.0381 104.627 24.0979C105.237 25.1544 106.312 25.6567 107.029 25.2423L113.925 20.4003C114.322 20.0716 114.351 19.3396 113.974 18.6891L113.977 18.6906C113.673 18.1607 113.187 17.8377 112.759 17.8319L112.758 17.832ZM124.265 17.832C123.838 17.8378 123.353 18.1608 123.047 18.6907L123.05 18.6893C122.675 19.3397 122.704 20.0717 123.098 20.4004L129.995 25.2424C130.71 25.6568 131.787 25.1545 132.4 24.098C133.008 23.0382 132.905 21.8547 132.185 21.4379L124.549 17.8798C124.46 17.846 124.364 17.8307 124.265 17.8321L124.265 17.832ZM118.509 21.3155C117.762 21.3164 117.144 21.7053 117.062 22.2104L116.321 30.6154C116.321 31.4477 117.291 32.1289 118.511 32.1289C119.733 32.1289 120.705 31.4477 120.705 30.6154L119.962 22.2104C119.879 21.7053 119.262 21.3164 118.512 21.3155H118.509H118.509Z" fill="#40A2D5"/>
</svg>
