<svg width="122" height="25" viewBox="0 0 122 25" fill="none" xmlns="http://www.w3.org/2000/svg">
<path fill-rule="evenodd" clip-rule="evenodd" d="M18.7039 5.69124C18.7039 8.8201 16.1659 11.3566 13.0349 11.3566C9.90386 11.3566 7.3658 8.8201 7.3658 5.69124C7.3658 2.56301 9.90386 0.0264893 13.0349 0.0264893C16.1659 0.0264893 18.7039 2.56301 18.7039 5.69124ZM5.67045 12.773C2.53949 12.773 0.00131226 15.3088 0.00131226 18.4376C0.00131226 21.5662 2.53949 24.1025 5.67045 24.1025C8.80153 24.1025 11.3398 21.5662 11.3398 18.4376C11.3398 15.3088 8.80153 12.773 5.67045 12.773ZM20.3993 12.7725C17.2683 12.7725 14.7302 15.3088 14.7302 18.4376C14.7302 21.5662 17.2683 24.1025 20.3993 24.1025C23.5303 24.1025 26.0684 21.5662 26.0684 18.4376C26.0684 15.3088 23.5303 12.7725 20.3993 12.7725Z" fill="#40A2D5"/>
<path fill-rule="evenodd" clip-rule="evenodd" d="M46.015 18.3723C46.0889 19.2127 46.7616 20.2824 47.9271 20.2824H48.609C48.8733 20.2824 49.09 20.0659 49.09 19.8015V4.81562H49.0871C49.0732 4.56316 48.8645 4.36096 48.609 4.36096H46.496C46.2405 4.36096 46.0318 4.56316 46.0176 4.81562H46.015V6.03332C44.7204 4.43872 42.6793 3.77686 40.6324 3.77686C35.9799 3.77686 32.2083 7.5485 32.2083 12.2013C32.2083 16.8544 35.9799 20.6262 40.6324 20.6262V20.6266C42.6793 20.6266 44.9099 19.8325 46.0148 18.3704L46.015 18.3723ZM40.6407 17.6777C37.6818 17.6777 35.2829 15.2261 35.2829 12.2013C35.2829 9.17712 37.6818 6.72536 40.6407 6.72536C43.5996 6.72536 45.9981 9.17712 45.9981 12.2013C45.9981 15.2261 43.5996 17.6777 40.6407 17.6777Z" fill="#40A2D5"/>
<path fill-rule="evenodd" clip-rule="evenodd" d="M80.4408 18.372C80.5147 19.2124 81.1874 20.2821 82.3528 20.2821H83.0347C83.2991 20.2821 83.5155 20.0655 83.5155 19.8012V4.81526H83.5128C83.499 4.56279 83.29 4.36059 83.0347 4.36059H80.9218C80.6662 4.36059 80.4575 4.56279 80.4432 4.81526H80.4408V6.03295C79.146 4.43835 77.1049 3.77649 75.058 3.77649C70.4055 3.77649 66.6341 7.54813 66.6341 12.201C66.6341 16.8541 70.4055 20.6259 75.058 20.6259V20.6262C77.1049 20.6262 79.3357 19.8321 80.4405 18.37L80.4408 18.372ZM75.0662 17.6773C72.1075 17.6773 69.7085 15.2257 69.7085 12.201C69.7085 9.17676 72.1075 6.725 75.0662 6.725C78.0253 6.725 80.4237 9.17676 80.4237 12.201C80.4237 15.2257 78.0253 17.6773 75.0662 17.6773Z" fill="#40A2D5"/>
<path fill-rule="evenodd" clip-rule="evenodd" d="M118.925 18.372C118.999 19.2124 119.671 20.2821 120.837 20.2821H121.519C121.783 20.2821 122 20.0655 122 19.8012V4.81526H121.997C121.983 4.56279 121.774 4.36059 121.519 4.36059H119.406C119.15 4.36059 118.941 4.56279 118.927 4.81526H118.925V6.03295C117.63 4.43835 115.589 3.77649 113.542 3.77649C108.89 3.77649 105.118 7.54813 105.118 12.201C105.118 16.8541 108.89 20.6259 113.542 20.6259V20.6262C115.589 20.6262 117.82 19.8321 118.924 18.37L118.925 18.372ZM113.55 17.6773C110.591 17.6773 108.193 15.2257 108.193 12.201C108.193 9.17676 110.591 6.725 113.55 6.725C116.509 6.725 118.908 9.17676 118.908 12.201C118.908 15.2257 116.509 17.6773 113.55 17.6773Z" fill="#40A2D5"/>
<path fill-rule="evenodd" clip-rule="evenodd" d="M102.445 18.8883L102.444 11.1337H102.445C102.445 6.76249 99.6869 3.8136 95.2896 3.8136C93.1904 3.8136 91.4696 5.02746 90.8619 6.07019C90.7306 5.25486 90.2976 4.39783 88.9553 4.39783H88.2711C88.0065 4.39783 87.7904 4.61448 87.7904 4.87884V18.4105V18.4125V19.866H87.7931C87.8069 20.1181 88.0158 20.3206 88.2714 20.3206H90.3844C90.4167 20.3206 90.4484 20.3168 90.4791 20.3107C90.4931 20.3081 90.5061 20.3026 90.5197 20.2987C90.5354 20.2939 90.5518 20.2902 90.5667 20.284C90.5855 20.2762 90.6025 20.2657 90.6201 20.256C90.6286 20.2508 90.6376 20.2471 90.6459 20.2416C90.667 20.228 90.6863 20.2116 90.705 20.1949C90.708 20.1918 90.7118 20.1898 90.7148 20.1869C90.7358 20.1666 90.755 20.1442 90.772 20.1209L90.7721 20.1206C90.8251 20.0479 90.8572 19.9604 90.8624 19.866H90.8651V11.0135C90.8651 8.66584 92.7685 6.76249 95.1163 6.76249C97.4639 6.76249 99.3673 8.66584 99.3673 11.0135L99.3692 18.413L99.3697 18.4105C99.3697 18.417 99.3708 18.4238 99.3708 18.4308V19.866H99.3736C99.3875 20.1181 99.5962 20.3206 99.8517 20.3206H101.965C101.997 20.3206 102.029 20.3168 102.06 20.3107C102.072 20.3084 102.084 20.3035 102.096 20.3C102.113 20.295 102.131 20.2907 102.147 20.284C102.165 20.2769 102.18 20.2669 102.197 20.2577C102.207 20.252 102.217 20.2479 102.227 20.2416C102.246 20.2288 102.264 20.2133 102.282 20.1979C102.286 20.1938 102.291 20.1908 102.295 20.1866C102.316 20.1672 102.333 20.1464 102.35 20.1245C102.351 20.1229 102.352 20.1216 102.353 20.1199C102.405 20.0479 102.437 19.9611 102.443 19.8673C102.443 19.8667 102.443 19.866 102.443 19.866H102.446V18.8885L102.445 18.8883Z" fill="#40A2D5"/>
<path fill-rule="evenodd" clip-rule="evenodd" d="M54.1369 16.2259C55.5475 17.2031 57.0872 17.6777 58.5668 17.6777C59.9764 17.6777 61.4337 16.9469 61.4337 15.675C61.4337 13.9768 58.2583 13.7126 56.2632 13.0345C54.2677 12.3564 52.549 10.9546 52.549 8.68462C52.549 5.2111 55.6439 3.77649 58.5326 3.77649C60.3628 3.77649 62.2512 4.38003 63.4755 5.2446C63.8971 5.56409 63.6403 5.93089 63.6403 5.93089L62.4717 7.60006C62.3404 7.78807 62.1107 7.9505 61.781 7.74701C61.4513 7.54366 60.2949 6.72513 58.5326 6.72513C56.7701 6.72513 55.7085 7.53905 55.7085 8.5479C55.7085 9.75766 57.0883 10.1382 58.7045 10.5505C61.5208 11.3097 64.5931 12.2222 64.5931 15.675C64.5931 18.7354 61.7306 20.6268 58.5668 20.6268C56.1693 20.6268 54.1281 19.9433 52.4161 18.687C52.0595 18.33 52.3086 17.9986 52.3086 17.9986L53.4715 16.3379C53.7081 16.0274 54.0064 16.1357 54.1369 16.2259Z" fill="#40A2D5"/>
</svg>
