<svg width="120" height="20" viewBox="0 0 120 20" fill="none" xmlns="http://www.w3.org/2000/svg">
<path d="M11.8738 10.3317C12.8283 10.408 13.6301 10.7898 14.3173 11.5152C15.0046 12.2407 15.3482 13.2333 15.3482 14.4933C15.3482 16.0205 14.8519 17.2804 13.821 18.1968C12.7901 19.1131 11.3393 19.5712 9.39212 19.5712H-0.000183105V1.47388H9.35394C10.9957 1.47388 12.332 1.93204 13.3247 2.81018C14.3173 3.7265 14.8137 4.91008 14.8137 6.39911C14.8137 7.54451 14.5082 8.42265 13.8592 9.10989C13.2101 9.79713 12.5611 10.1408 11.8356 10.2171L11.8738 10.3317ZM4.46689 8.95717H8.36125C9.01032 8.95717 9.54484 8.76627 9.96482 8.38447C10.3466 8.00267 10.5757 7.54451 10.5757 6.89545C10.5757 6.32275 10.3848 5.90277 10.003 5.55914C9.6212 5.21552 9.12486 5.0628 8.55216 5.0628H4.46689V8.95717ZM8.59034 15.9823C9.27758 15.9823 9.85028 15.7914 10.2321 15.4478C10.6139 15.1042 10.8048 14.6078 10.8048 13.9588C10.8048 13.3479 10.6139 12.8897 10.1939 12.5461C9.8121 12.2025 9.27758 12.0116 8.6667 12.0116H4.46689V15.9823H8.59034ZM30.8111 19.5712H26.4968V18.2731C25.4278 19.4185 24.0151 19.9912 22.3352 19.9912C20.7316 19.9912 19.4717 19.4567 18.5172 18.4258C17.5627 17.395 17.0663 16.0205 17.0663 14.3406V6.01731H21.3425V13.4242C21.3425 14.226 21.5716 14.8751 21.9915 15.3714C22.4115 15.8678 22.9842 16.0968 23.6715 16.0968C24.5496 16.0968 25.2369 15.7914 25.7332 15.1805C26.2295 14.5696 26.4586 13.6151 26.4586 12.317V6.01731H30.773L30.8111 19.5712ZM44.136 19.5712H32.682V18.7695L38.0654 9.45351H32.8347V6.01731H44.0596V6.81909L38.6762 16.135H44.0978V19.5712H44.136ZM57.4227 19.5712H46.0068V18.7695L51.352 9.45351H46.1214V6.01731H57.3463V6.81909L51.9629 16.135H57.3845L57.4227 19.5712ZM63.8369 9.22443H71.6638V13.1188H63.8369V19.6094H59.3698V1.47388H72.3511V5.36824H63.8369V9.22443ZM103.315 13.9206H93.3883C93.6556 15.6005 94.9155 16.555 96.7863 16.555C98.2754 16.555 99.7644 15.9823 100.872 15.1042L102.513 17.9677C100.986 19.2658 99.039 19.9912 96.7863 19.9912C92.2429 19.9912 89.1503 17.2423 89.1503 12.8134C89.1503 10.7135 89.8376 8.99535 91.212 7.65905C92.5865 6.32275 94.3046 5.63551 96.3282 5.63551C98.2754 5.63551 99.9171 6.28457 101.253 7.62087C102.59 8.95717 103.277 10.6753 103.315 12.8515V13.9206ZM94.5719 9.68259C94.0374 10.0644 93.6556 10.5989 93.4647 11.248H99.0389C98.8481 10.5607 98.5044 10.0262 98.0081 9.64441C97.5117 9.30079 96.939 9.10989 96.3282 9.10989C95.6791 9.10989 95.1064 9.30079 94.5719 9.68259ZM87.5086 13.9206H77.5817C77.849 15.6005 79.1089 16.555 80.9798 16.555C82.4688 16.555 83.9578 15.9823 85.065 15.1042L86.7068 17.9677C85.1796 19.2658 83.2324 19.9912 80.9798 19.9912C76.4363 19.9912 73.3438 17.2423 73.3438 12.8134C73.3438 10.7135 74.031 8.99535 75.4055 7.65905C76.78 6.32275 78.4981 5.63551 80.5216 5.63551C82.4688 5.63551 84.1105 6.28457 85.4468 7.62087C86.7831 8.95717 87.4704 10.6753 87.5086 12.8515V13.9206ZM78.7653 9.68259C78.2308 10.0644 77.849 10.5989 77.6581 11.248H83.2324C83.0415 10.5607 82.6979 10.0262 82.2015 9.64441C81.7052 9.30079 81.1325 9.10989 80.5216 9.10989C79.8726 9.10989 79.2999 9.30079 78.7653 9.68259ZM120 19.5712H115.685V18.5022C114.578 19.4949 113.204 19.9912 111.486 19.9912C109.653 19.9912 108.088 19.304 106.79 17.9677C105.491 16.6314 104.842 14.9133 104.842 12.8134C104.842 10.7135 105.491 8.99535 106.79 7.65905C108.088 6.32275 109.653 5.63551 111.486 5.63551C113.204 5.63551 114.616 6.13185 115.685 7.12453V0.137573H120V19.5712ZM114.731 15.3332C115.38 14.6842 115.724 13.8442 115.724 12.8134C115.724 11.8207 115.38 10.9807 114.731 10.2935C114.082 9.64441 113.28 9.30079 112.402 9.30079C111.447 9.30079 110.684 9.64441 110.073 10.2935C109.462 10.9425 109.157 11.7825 109.157 12.8134C109.157 13.8442 109.462 14.7224 110.073 15.3714C110.684 16.0205 111.447 16.3259 112.402 16.3259C113.28 16.3259 114.044 15.9823 114.731 15.3332Z" fill="#40A2D5"/>
</svg>
